<svg xmlns="http://www.w3.org/2000/svg" viewBox="0 0 2198.43 2286.88" fill="#1E5BFF" fill-rule="evenodd">
  <path d="M353.65 126.76l1290.79 -124.94c214.24,-20.74 406.49,137.59 427.22,351.82l124.94 1290.79c20.74,214.24 -137.57,406.49 -351.82,427.22l-86.88 8.41c-0.13,-6.93 -0.68,-13.93 -1.69,-20.96 -13.24,-92.68 -99.11,-157.09 -191.78,-143.86 -92.68,13.24 -157.08,99.11 -143.85,191.78 0.27,1.88 0.58,3.75 0.91,5.61l-332.94 32.22c-0.13,-6.93 -0.68,-13.93 -1.69,-20.96 -13.24,-92.68 -99.11,-157.09 -191.78,-143.86 -92.68,13.24 -157.08,99.11 -143.85,191.78 0.26,1.88 0.57,3.75 0.9,5.61l-198.15 19.18c-214.25,20.74 -406.49,-137.57 -427.23,-351.82l-124.94 -1290.79c-20.74,-214.23 137.57,-406.49 351.82,-427.22zm685.63 1732.56l272.79 -26.4 415.89 -1565.04c-226.25,406.09 -503.52,785.15 -585.07,1239.33 -163.81,-433.4 -522.15,-756.09 -820.17,-1103.31l716.57 1455.43z"/>
  <path d="M1568.73 1945.38c76.04,-10.85 146.48,41.99 157.35,118.03 10.86,76.03 -41.98,146.49 -118.02,157.34 -76.03,10.86 -146.49,-41.98 -157.35,-118.02 -10.85,-76.04 41.98,-146.49 118.01,-157.35z"/>
  <path d="M899.4 2010.25c75.99,-10.84 146.4,41.96 157.25,117.98 10.85,75.97 -41.93,146.38 -117.97,157.23 -75.97,10.85 -146.38,-41.94 -157.25,-117.96 -10.82,-75.97 41.97,-146.38 117.96,-157.25z"/>
</svg>
