<svg width="131" height="38" viewBox="0 0 131 38" fill="none" xmlns="http://www.w3.org/2000/svg">
<path d="M17.9998 29.5V23.5L13.4998 19L20.9998 13L23.9998 17.5H28.4998M2.99976 28C2.99976 29.1935 3.47386 30.3381 4.31778 31.182C5.16169 32.0259 6.30628 32.5 7.49976 32.5C8.69323 32.5 9.83782 32.0259 10.6817 31.182C11.5256 30.3381 11.9998 29.1935 11.9998 28C11.9998 26.8065 11.5256 25.6619 10.6817 24.818C9.83782 23.9741 8.69323 23.5 7.49976 23.5C6.30628 23.5 5.16169 23.9741 4.31778 24.818C3.47386 25.6619 2.99976 26.8065 2.99976 28ZM23.9998 28C23.9998 29.1935 24.4739 30.3381 25.3178 31.182C26.1617 32.0259 27.3063 32.5 28.4998 32.5C29.6932 32.5 30.8378 32.0259 31.6817 31.182C32.5257 30.3381 32.9998 29.1935 32.9998 28C32.9998 26.8065 32.5257 25.6619 31.6817 24.818C30.8378 23.9741 29.6932 23.5 28.4998 23.5C27.3063 23.5 26.1617 23.9741 25.3178 24.818C24.4739 25.6619 23.9998 26.8065 23.9998 28ZM19.5103 8.5C19.5103 8.89397 19.5879 9.28407 19.7386 9.64805C19.8894 10.012 20.1104 10.3427 20.3889 10.6213C20.6675 10.8999 20.9982 11.1209 21.3622 11.2716C21.7262 11.4224 22.1163 11.5 22.5103 11.5C22.9042 11.5 23.2943 11.4224 23.6583 11.2716C24.0223 11.1209 24.353 10.8999 24.6316 10.6213C24.9102 10.3427 25.1311 10.012 25.2819 9.64805C25.4327 9.28407 25.5103 8.89397 25.5103 8.5C25.5103 7.70435 25.1942 6.94129 24.6316 6.37868C24.069 5.81607 23.3059 5.5 22.5103 5.5C21.7146 5.5 20.9515 5.81607 20.3889 6.37868C19.8263 6.94129 19.5103 7.70435 19.5103 8.5Z" stroke="white" stroke-width="3" stroke-linecap="round" stroke-linejoin="round"/>
<path d="M64.384 8.88L56.544 30H52.544L44.704 8.88H48.352L53.28 22.928L54.56 27.12L55.84 22.96L60.768 8.88H64.384ZM74.4515 19.728C74.4515 18.6613 74.1528 17.84 73.5555 17.264C72.9795 16.6667 72.1795 16.368 71.1555 16.368C70.1955 16.368 69.3742 16.592 68.6915 17.04C68.0088 17.488 67.5075 18.2133 67.1875 19.216L64.3075 18C64.7128 16.6987 65.5022 15.6533 66.6755 14.864C67.8702 14.0747 69.4062 13.68 71.2835 13.68C72.5635 13.68 73.6942 13.8933 74.6755 14.32C75.6568 14.7253 76.4248 15.344 76.9795 16.176C77.5555 17.008 77.8435 18.0747 77.8435 19.376V26.512C77.8435 27.3013 78.2382 27.696 79.0275 27.696C79.4115 27.696 79.7848 27.6427 80.1475 27.536L79.9555 29.904C79.4648 30.1387 78.8462 30.256 78.0995 30.256C77.4168 30.256 76.7982 30.1387 76.2435 29.904C75.7102 29.648 75.2835 29.2747 74.9635 28.784C74.6648 28.272 74.5155 27.6427 74.5155 26.896V26.672L75.2195 26.64C75.0275 27.472 74.6328 28.1653 74.0355 28.72C73.4382 29.2533 72.7448 29.6587 71.9555 29.936C71.1662 30.192 70.3662 30.32 69.5555 30.32C68.5528 30.32 67.6462 30.16 66.8355 29.84C66.0462 29.52 65.4168 29.04 64.9475 28.4C64.4995 27.7387 64.2755 26.928 64.2755 25.968C64.2755 24.7733 64.6595 23.792 65.4275 23.024C66.2168 22.256 67.3262 21.7333 68.7555 21.456L74.9635 20.24L74.9315 22.64L70.4195 23.568C69.5235 23.7387 68.8515 23.984 68.4035 24.304C67.9555 24.624 67.7315 25.0933 67.7315 25.712C67.7315 26.3093 67.9555 26.7893 68.4035 27.152C68.8728 27.4933 69.4915 27.664 70.2595 27.664C70.7928 27.664 71.3048 27.6 71.7955 27.472C72.3075 27.344 72.7662 27.1413 73.1715 26.864C73.5768 26.5653 73.8862 26.192 74.0995 25.744C74.3342 25.2747 74.4515 24.72 74.4515 24.08V19.728ZM86.1415 6.8V25.52C86.1415 26.3093 86.2802 26.8533 86.5575 27.152C86.8348 27.4507 87.2935 27.6 87.9335 27.6C88.3175 27.6 88.6375 27.5787 88.8935 27.536C89.1708 27.472 89.5122 27.3653 89.9175 27.216L89.5335 29.776C89.1708 29.9467 88.7548 30.0747 88.2855 30.16C87.8162 30.2667 87.3468 30.32 86.8775 30.32C85.4482 30.32 84.3922 29.9573 83.7095 29.232C83.0482 28.4853 82.7175 27.344 82.7175 25.808V6.8H86.1415ZM100.792 30.32C98.808 30.32 97.0907 29.8827 95.64 29.008C94.1893 28.1333 93.0587 26.896 92.248 25.296C91.4373 23.6747 91.032 21.7227 91.032 19.44C91.032 17.2 91.448 15.2693 92.28 13.648C93.1333 12.0267 94.328 10.7787 95.864 9.904C97.4213 9.008 99.2027 8.56 101.208 8.56C103.405 8.56 105.176 8.96533 106.52 9.776C107.885 10.5867 108.973 11.8453 109.784 13.552L106.616 15.056C106.211 13.8827 105.539 13.008 104.6 12.432C103.683 11.8347 102.563 11.536 101.24 11.536C99.9173 11.536 98.7547 11.8453 97.752 12.464C96.7707 13.0827 96.0027 13.9893 95.448 15.184C94.8933 16.3573 94.616 17.776 94.616 19.44C94.616 21.1253 94.8613 22.5653 95.352 23.76C95.8427 24.9333 96.5787 25.8293 97.56 26.448C98.5627 27.0667 99.7893 27.376 101.24 27.376C102.029 27.376 102.765 27.28 103.448 27.088C104.131 26.8747 104.728 26.576 105.24 26.192C105.752 25.7867 106.147 25.2853 106.424 24.688C106.723 24.0693 106.872 23.344 106.872 22.512V21.904H100.728V19.12H109.912V30H107.352L107.16 25.744L107.8 26.064C107.288 27.408 106.435 28.4533 105.24 29.2C104.067 29.9467 102.584 30.32 100.792 30.32ZM121.196 13.68C122.754 13.68 124.13 14.0107 125.324 14.672C126.519 15.3333 127.447 16.2933 128.108 17.552C128.791 18.7893 129.132 20.272 129.132 22C129.132 23.728 128.791 25.2213 128.108 26.48C127.447 27.7173 126.519 28.6667 125.324 29.328C124.13 29.9893 122.754 30.32 121.196 30.32C119.639 30.32 118.263 29.9893 117.068 29.328C115.874 28.6667 114.935 27.7173 114.252 26.48C113.57 25.2213 113.228 23.728 113.228 22C113.228 20.272 113.57 18.7893 114.252 17.552C114.935 16.2933 115.874 15.3333 117.068 14.672C118.263 14.0107 119.639 13.68 121.196 13.68ZM121.196 16.368C120.236 16.368 119.415 16.592 118.732 17.04C118.071 17.4667 117.559 18.096 117.196 18.928C116.834 19.76 116.652 20.784 116.652 22C116.652 23.1947 116.834 24.2187 117.196 25.072C117.559 25.904 118.071 26.544 118.732 26.992C119.415 27.4187 120.236 27.632 121.196 27.632C122.156 27.632 122.967 27.4187 123.628 26.992C124.29 26.544 124.802 25.904 125.164 25.072C125.527 24.2187 125.708 23.1947 125.708 22C125.708 20.784 125.527 19.76 125.164 18.928C124.802 18.096 124.29 17.4667 123.628 17.04C122.967 16.592 122.156 16.368 121.196 16.368Z" fill="white"/>
</svg>
