<?xml version="1.0" encoding="UTF-8"?>
<!DOCTYPE svg PUBLIC "-//W3C//DTD SVG 1.1//EN" "http://www.w3.org/Graphics/SVG/1.1/DTD/svg11.dtd">
<!-- Creator: CorelDRAW -->
<svg xmlns="http://www.w3.org/2000/svg" xml:space="preserve" width="3.26479in" height="0.983031in" version="1.1" style="shape-rendering:geometricPrecision; text-rendering:geometricPrecision; image-rendering:optimizeQuality; fill-rule:evenodd; clip-rule:evenodd"
viewBox="0 0 3264.79 983.03"
 xmlns:xlink="http://www.w3.org/1999/xlink"
 xmlns:xodm="http://www.corel.com/coreldraw/odm/2003">
 <defs>
  <style type="text/css">
   <![CDATA[
    .fil1 {fill:#FFFFFF}
    .fil0 {fill:#FFFFFF;fill-rule:nonzero}
   ]]>
  </style>
 </defs>
 <g id="Layer_x0020_1">
  <metadata id="CorelCorpID_0Corel-Layer"/>
  <g id="_2839271388592">
   <path class="fil0" d="M1236.54 738.15l108.26 0 223.08 -599.54 -109.08 0 -129.58 345.29c-11.48,30.35 -23.79,67.25 -38.55,119.74 -13.12,-48.39 -24.61,-83.66 -37.73,-119.74l-131.22 -345.29 -111.54 0 226.37 599.54z"/>
   <path id="_1" class="fil0" d="M1679.43 748.81c63.15,0 118.1,-28.7 135.33,-70.53l7.38 59.87 87.76 0 0 -246.05c0,-112.36 -67.25,-171.41 -176.33,-171.41 -109.9,0 -182.07,57.41 -182.07,145.17l85.3 0c0,-42.65 32.8,-67.25 91.85,-67.25 50.85,0 83.66,22.14 83.66,77.09l0 9.02 -121.38 9.02c-95.96,7.38 -150.09,54.13 -150.09,128.76 0,76.28 52.49,126.3 138.61,126.3zm32.81 -75.45c-45.11,0 -69.71,-18.04 -69.71,-54.95 0,-32.81 23.78,-53.31 86.11,-59.05l84.48 -6.56 0 21.32c0,62.33 -39.37,99.24 -100.88,99.24z"/>
   <polygon id="_2" class="fil0" points="2109.19,738.15 2109.19,127.96 2009.95,127.96 2009.95,738.15 "/>
   <path id="_3" class="fil0" d="M2491.38 227.2c72.17,0 132.87,32.8 151.73,103.34l110.72 0c-17.22,-122.2 -123.02,-201.76 -259.99,-201.76 -180.43,0 -299.36,129.59 -299.36,311.66 0,184.54 117.28,306.74 285.42,306.74 81.2,0 149.27,-31.99 182.07,-77.92l6.56 68.89 88.58 0 0 -337.09 -278.85 0 0 92.68 181.26 0 0 2.46c0,95.96 -63.15,153.37 -167.31,153.37 -110.72,0 -187.82,-72.99 -187.82,-206.68 0,-129.59 68.07,-215.7 187,-215.7z"/>
   <path id="_4" class="fil0" d="M2831.74 534.76c0,126.3 91.04,213.24 216.52,213.24 125.48,0 216.52,-86.94 216.52,-213.24 0,-126.31 -91.04,-213.24 -216.52,-213.24 -125.48,0 -216.52,86.94 -216.52,213.24zm100.06 0c0,-73.81 47.57,-123.85 116.46,-123.85 68.89,0 116.46,50.03 116.46,123.85 0,73.81 -47.57,123.84 -116.46,123.84 -68.89,0 -116.46,-50.03 -116.46,-123.84z"/>
   <g>
    <path class="fil1" d="M152.02 54.49l554.85 -53.7c92.09,-8.91 174.73,59.14 183.65,151.23l53.7 554.85c8.91,92.09 -59.14,174.73 -151.23,183.65l-37.35 3.61c-0.06,-2.98 -0.29,-5.99 -0.72,-9.01 -5.69,-39.84 -42.6,-67.53 -82.44,-61.84 -39.84,5.69 -67.52,42.6 -61.83,82.44 0.11,0.81 0.25,1.61 0.39,2.41l-143.11 13.85c-0.06,-2.98 -0.29,-5.99 -0.72,-9.01 -5.69,-39.84 -42.6,-67.53 -82.44,-61.84 -39.84,5.69 -67.52,42.6 -61.83,82.44 0.11,0.81 0.25,1.61 0.39,2.41l-85.18 8.24c-92.09,8.91 -174.73,-59.14 -183.64,-151.23l-53.7 -554.85c-8.91,-92.09 59.14,-174.73 151.23,-183.65zm294.72 744.75l117.26 -11.35 178.77 -672.74c-97.26,174.56 -216.44,337.5 -251.5,532.73 -70.42,-186.3 -224.45,-325.01 -352.56,-474.26l308.02 625.62z"/>
    <path class="fil1" d="M674.33 836.24c32.69,-4.67 62.96,18.05 67.64,50.73 4.67,32.69 -18.05,62.97 -50.73,67.63 -32.68,4.67 -62.97,-18.05 -67.64,-50.73 -4.66,-32.69 18.05,-62.97 50.73,-67.64z"/>
    <path class="fil1" d="M386.61 864.12c32.67,-4.66 62.93,18.04 67.59,50.72 4.67,32.66 -18.02,62.92 -50.71,67.59 -32.65,4.67 -62.92,-18.03 -67.59,-50.71 -4.65,-32.66 18.04,-62.92 50.71,-67.59z"/>
   </g>
  </g>
 </g>
</svg>
